<?xml version="1.0" standalone="no"?>
<!DOCTYPE svg PUBLIC "-//W3C//DTD SVG 20010904//EN"
 "http://www.w3.org/TR/2001/REC-SVG-20010904/DTD/svg10.dtd">
<svg version="1.0" xmlns="http://www.w3.org/2000/svg"
 width="512.000000pt" height="512.000000pt" viewBox="0 0 512.000000 512.000000"
 preserveAspectRatio="xMidYMid meet">

<g transform="translate(0.000000,512.000000) scale(0.100000,-0.100000)"
fill="#000000" stroke="none">
<path d="M0 2560 l0 -2560 2560 0 2560 0 0 2560 0 2560 -2560 0 -2560 0 0
-2560z m1739 1256 c17 -33 48 -81 69 -106 l39 -45 89 22 c129 32 311 60 478
74 217 17 468 -6 740 -68 l119 -27 38 45 c54 62 95 151 111 238 l14 75 42 -38
c23 -22 56 -67 74 -104 29 -59 33 -76 33 -152 0 -57 -6 -99 -17 -127 l-17 -42
35 -11 c28 -10 46 -28 86 -89 187 -286 324 -624 382 -944 32 -175 49 -436 39
-602 l-8 -130 -78 -53 c-166 -115 -401 -232 -598 -301 l-106 -37 -33 51 c-19
27 -55 87 -81 133 l-48 82 87 41 c48 22 106 51 130 65 l44 26 -31 22 -31 23
-107 -43 c-196 -78 -476 -134 -673 -134 -198 0 -480 56 -671 134 l-106 43 -32
-23 -33 -22 24 -16 c12 -8 71 -38 130 -65 l107 -50 -35 -63 c-52 -92 -126
-198 -138 -198 -21 0 -201 68 -303 114 -132 60 -288 148 -389 219 l-82 57 -6
152 c-7 136 3 349 20 458 54 342 151 627 310 908 101 177 139 229 178 243 l34
12 -16 36 c-10 24 -16 67 -16 126 -1 82 2 96 32 157 18 37 51 82 74 104 l42
37 12 -73 c7 -40 26 -100 43 -134z"/>
<path d="M1882 2507 l-162 -162 47 -48 48 -47 117 117 118 118 118 -118 118
-117 47 48 47 47 -163 163 c-89 89 -164 162 -167 162 -3 0 -78 -73 -168 -163z"/>
<path d="M2902 2507 l-162 -162 47 -48 48 -47 117 117 118 118 118 -118 118
-117 47 48 47 47 -163 163 c-89 89 -164 162 -167 162 -3 0 -78 -73 -168 -163z"/>
</g>
</svg>
